# xmcd
#
# Track frame offsets:
#	150
#	18170
#	31958
#	47328
#	62293
#	73027
#	78780
#	82529
#	89990
#	95515
#	107194
#	111500
#	116376
#	123251
#	127449
#	132690
#	142190
#	170516
#	174248
#	181518
#	190530
#	195858
#	217090
#	227334
#	230575
#	235936
#	242421
#	251396
#	260966
#	265823
#	270038
#
# Disc length: 3761 seconds
#
# Revision: 0
# Processed by: cddbd v1.5.2PL0 Copyright (c) Steve Scherf et al.
# Submitted via: EasyCDDAExtractor 10.0.5.1
#
DISCID=a00eaf1f
DTITLE=John Franceschina - Music for the Theatre by John Franceschina
DYEAR=2002
DGENRE=Klassiek
TTITLE0=01 Cotillion Dances from Misalliance by G.B. Shaw - Grand Promenade
TTITLE1=02 Cotillion Dances from Misalliance by G.B. Shaw - Schottische Rag
TTITLE2=03 Cotillion Dances from Misalliance by G.B. Shaw - Whoopsie
TTITLE3=04 Cotillion Dances from Misalliance by G.B. Shaw - Bosie's Quadrille
TTITLE4=05 Irish Suite from The Playboy of the Western World by J.M. Synge - A
TTITLE4=engus
TTITLE5=06 Irish Suite from The Playboy of the Western World by J.M. Synge - C
TTITLE5=uchulain
TTITLE6=07 Irish Suite from The Playboy of the Western World by J.M. Synge - C
TTITLE6=onchubar
TTITLE7=08 Irish Suite from The Playboy of the Western World by J.M. Synge - F
TTITLE7=ergus
TTITLE8=09 Irish Suite from The Playboy of the Western World by J.M. Synge - C
TTITLE8=athleen Na Hoolihan
TTITLE9=10 Irish Suite from The Playboy of the Western World by J.M. Synge - F
TTITLE9=iddler of Dooney
TTITLE10=11 Italian Suite from Mount Allegro by E. Thomas and B. Redmond - Pro
TTITLE10=logue
TTITLE11=12 Italian Suite from Mount Allegro by E. Thomas and B. Redmond - Tar
TTITLE11=antella Italiano
TTITLE12=13 Italian Suite from Mount Allegro by E. Thomas and B. Redmond - Wal
TTITLE12=tzing the Streets
TTITLE13=14 Italian Suite from Mount Allegro by E. Thomas and B. Redmond - Tar
TTITLE13=antella Leggiero
TTITLE14=15 Italian Suite from Mount Allegro by E. Thomas and B. Redmond - Can
TTITLE14=tabile
TTITLE15=16 Italian Suite from Mount Allegro by E. Thomas and B. Redmond - Rep
TTITLE15=rise Tarantella Italiano
TTITLE16=17 Italian Suite from Mount Allegro by E. Thomas and B. Redmond - Epi
TTITLE16=logue
TTITLE17=18 Excerpts from Stag at Bay by C. McArthur and B. Hecht - Ouverture 
TTITLE17=(Silly Time Bear)
TTITLE18=19 Excerpts from Stag at Bay by C. McArthur and B. Hecht - Prelude to
TTITLE18=Act Three (Mushy Music)
TTITLE19=20 Excerpts from Let's Get a Divorce by V. Sardou and E. de Najac - V
TTITLE19=alse Satirique
TTITLE20=21 Excerpts from The Cherry Orchard by A. Chekhov - Work Song
TTITLE21=22 Excerpts from The Cherry Orchard by A. Chekhov - Cotillion Waltz
TTITLE22=23 Rustic Suite from A Midsummer Night's Dream by W. Shakespeare - Ru
TTITLE22=stic Dance
TTITLE23=24 Rustic Suite from A Midsummer Night's Dream by W. Shakespeare - Th
TTITLE23=e Changeling
TTITLE24=25 Rustic Suite from A Midsummer Night's Dream by W. Shakespeare - Da
TTITLE24=nce of the Mechanicals
TTITLE25=26 Excerpt from The Dollmaker's Dilemma by C. Faraone and E. Hickley 
TTITLE25=Schaplowsky - Toyshop Ballet
TTITLE26=27 Sylvian Suite from As You Like It by W. Shakespeare - Under the Gr
TTITLE26=eenwood Tree
TTITLE27=28 Sylvian Suite from As You Like It by W. Shakespeare - Fair Rosalin
TTITLE27=d
TTITLE28=29 Sylvian Suite from As You Like It by W. Shakespeare - Audrey
TTITLE29=30 Sylvian Suite from As You Like It by W. Shakespeare - Touchstone
TTITLE30=31 Sylvian Suite from As You Like It by W. Shakespeare - Happy Ending
TTITLE30=s
EXTD=
EXTT0=
EXTT1=
EXTT2=
EXTT3=
EXTT4=
EXTT5=
EXTT6=
EXTT7=
EXTT8=
EXTT9=
EXTT10=
EXTT11=
EXTT12=
EXTT13=
EXTT14=
EXTT15=
EXTT16=
EXTT17=
EXTT18=
EXTT19=
EXTT20=
EXTT21=
EXTT22=
EXTT23=
EXTT24=
EXTT25=
EXTT26=
EXTT27=
EXTT28=
EXTT29=
EXTT30=
PLAYORDER=
